<svg width="26" height="26" viewBox="0 0 26 26" fill="none" xmlns="http://www.w3.org/2000/svg">
<path fill-rule="evenodd" clip-rule="evenodd" d="M21.9097 3.25148C22.3584 3.2583 22.7152 3.61509 22.722 4.06374C22.7317 4.7005 22.7053 6.39342 22.2547 8.35497C22.1776 8.69077 22.0918 9.01755 21.998 9.33572L21.4047 9.17267C20.3034 8.88276 19.293 8.30115 18.4827 7.49083C17.6733 6.68139 17.0922 5.67242 16.8019 4.5731L16.7058 4.13146L16.6697 3.9659C16.9778 3.87582 17.294 3.79333 17.6185 3.71876C19.58 3.26816 21.2725 3.24169 21.9097 3.25148ZM20.1344 6.65347C20.1489 6.64171 20.1629 6.62917 20.1763 6.61581C20.2825 6.50958 20.3434 6.36227 20.3434 6.2124C20.3434 6.06207 20.2825 5.91476 20.1763 5.80857C20.163 5.79532 20.1489 5.78275 20.1344 5.77091C20.1199 5.75914 20.1048 5.74809 20.0895 5.73743C20.0739 5.72718 20.0579 5.71766 20.0412 5.7089C20.0248 5.70018 20.0081 5.69218 19.991 5.68529C19.9738 5.67809 19.956 5.67162 19.9384 5.66625C19.9205 5.66095 19.9022 5.65638 19.884 5.65257C19.8657 5.64873 19.8471 5.6461 19.8284 5.64416C19.7915 5.64035 19.7534 5.64035 19.7162 5.64416C19.6979 5.6461 19.6792 5.64873 19.661 5.65257C19.6427 5.65634 19.6245 5.66091 19.6066 5.66625C19.589 5.67162 19.5711 5.67809 19.554 5.68529C19.5369 5.69218 19.5198 5.70018 19.5034 5.7089C19.487 5.71762 19.471 5.72715 19.4554 5.73743C19.4398 5.74805 19.425 5.7591 19.4105 5.77091C19.3961 5.78268 19.382 5.79524 19.3687 5.80857C19.3557 5.82187 19.3428 5.83558 19.331 5.85005C19.3192 5.86448 19.3082 5.87972 19.2979 5.89533C19.2876 5.91057 19.2777 5.92691 19.269 5.94328C19.2605 5.95966 19.2525 5.97676 19.2453 5.9939C19.2381 6.01104 19.232 6.02852 19.2263 6.04642C19.221 6.06432 19.2164 6.0826 19.2126 6.10085C19.2092 6.11913 19.2061 6.13737 19.2042 6.15603C19.2023 6.17469 19.2015 6.1937 19.2015 6.21236C19.2015 6.36231 19.2624 6.50962 19.3686 6.61581C19.3819 6.6291 19.396 6.64163 19.4105 6.65347C19.425 6.66524 19.4398 6.67629 19.4554 6.68695C19.471 6.69723 19.487 6.70676 19.5033 6.71552C19.5198 6.72431 19.5369 6.73231 19.554 6.73951C19.5711 6.74633 19.589 6.75284 19.6065 6.75817C19.6244 6.76347 19.6427 6.76842 19.6609 6.77188C19.6792 6.77569 19.6978 6.77836 19.7161 6.78026C19.7347 6.78217 19.7537 6.78331 19.7724 6.78331C19.7911 6.78331 19.8101 6.78217 19.8284 6.78026C19.847 6.77836 19.8657 6.77569 19.8839 6.77188C19.9023 6.76846 19.9205 6.7635 19.9384 6.75817C19.9559 6.75288 19.9738 6.74637 19.9909 6.73951C20.0081 6.73227 20.0247 6.72428 20.0411 6.71552C20.0579 6.70676 20.0739 6.69723 20.0895 6.68695C20.1048 6.67633 20.1199 6.66528 20.1344 6.65347ZM17.6754 8.29799C18.628 9.25064 19.8164 9.93462 21.1114 10.276L21.6341 10.4195C21.0356 11.9919 20.2082 13.3117 19.1614 14.3585C17.9875 15.5325 16.4553 16.4376 14.6071 17.0488C13.2349 17.5026 11.9012 17.7194 10.902 17.8225L10.6006 22.218L10.6 22.2234C10.5991 22.2344 10.5976 22.2453 10.5961 22.2563C10.5959 22.2579 10.5956 22.2595 10.5954 22.2612C10.5946 22.2674 10.5938 22.2737 10.5927 22.2798C10.5914 22.2869 10.5898 22.294 10.5882 22.301C10.5878 22.3026 10.5874 22.3043 10.5871 22.3059C10.5848 22.3156 10.5827 22.3253 10.58 22.3348C10.5781 22.3416 10.5758 22.3481 10.5736 22.3548C10.5701 22.3657 10.5665 22.3766 10.5623 22.3872C10.5601 22.393 10.5574 22.3987 10.5549 22.4044C10.5503 22.4152 10.5455 22.426 10.5402 22.4365C10.5372 22.4426 10.5337 22.4485 10.5304 22.4545C10.5252 22.464 10.5199 22.4735 10.5141 22.4826C10.5097 22.4895 10.505 22.4962 10.5004 22.503C10.495 22.5107 10.4898 22.5183 10.4841 22.5257C10.4783 22.5333 10.4722 22.5406 10.466 22.5479C10.4608 22.554 10.4557 22.5601 10.4502 22.566C10.4432 22.5736 10.4359 22.5809 10.4284 22.5882C10.4231 22.5934 10.4176 22.5986 10.4121 22.6036C10.4044 22.6105 10.3965 22.6172 10.3884 22.6237C10.382 22.6288 10.3756 22.6337 10.3691 22.6385C10.3641 22.6422 10.3591 22.6458 10.3539 22.6493C10.3512 22.6512 10.3484 22.6531 10.3457 22.6549C10.3376 22.6603 10.3292 22.6654 10.3208 22.6704C10.3139 22.6744 10.3071 22.6785 10.3 22.6823C10.2891 22.6881 10.278 22.6934 10.2667 22.6985C10.265 22.6993 10.2633 22.7002 10.2616 22.701C10.2594 22.7022 10.2572 22.7033 10.2548 22.7043L10.2505 22.7059C10.2369 22.7116 10.223 22.7166 10.2089 22.7212C10.2074 22.7217 10.2059 22.7222 10.2044 22.7228C10.2021 22.7236 10.1998 22.7245 10.1975 22.7252C10.1828 22.7297 10.1677 22.7334 10.1525 22.7367C10.151 22.737 10.1496 22.7374 10.1481 22.7378C10.1462 22.7383 10.1443 22.7388 10.1424 22.7391C10.1294 22.7417 10.1161 22.7434 10.1028 22.7451C10.0788 22.7482 10.0549 22.7503 10.031 22.7503C9.99992 22.7503 9.96907 22.7474 9.93871 22.7425L9.92561 22.7401C9.91304 22.7377 9.90051 22.7349 9.8881 22.7317C9.88639 22.7312 9.88467 22.7308 9.88295 22.7304C9.87951 22.7295 9.87608 22.7286 9.87267 22.7277C9.85763 22.7233 9.84278 22.7185 9.82815 22.7129C9.82244 22.7107 9.81699 22.7082 9.81139 22.7059C9.80168 22.7018 9.79201 22.6976 9.78249 22.693C9.77639 22.69 9.77037 22.687 9.76443 22.6839C9.75426 22.6785 9.74429 22.6728 9.73442 22.6668C9.7328 22.6658 9.73116 22.6648 9.72952 22.6639C9.72712 22.6625 9.72472 22.6611 9.72239 22.6596C9.70856 22.6507 9.69516 22.6412 9.68209 22.6311L9.67501 22.6253C9.66389 22.6165 9.65303 22.6071 9.64248 22.5973L9.63498 22.5903C9.62371 22.5794 9.61277 22.5681 9.6023 22.5562L9.59994 22.5537C9.58844 22.5404 9.57739 22.5265 9.56703 22.5121L9.56452 22.5083C9.55606 22.4963 9.54803 22.4839 9.54041 22.4711C9.53755 22.4663 9.53485 22.4614 9.53215 22.4565C9.52689 22.4471 9.52194 22.4375 9.51718 22.4277L9.51571 22.4246C9.51326 22.4196 9.51082 22.4145 9.50853 22.4094L9.50568 22.4033L7.73102 18.2441L3.60924 16.4997L3.60752 16.4989L3.59827 16.495C3.59626 16.4942 3.59435 16.4932 3.59243 16.4922C3.59082 16.4914 3.5892 16.4905 3.58753 16.4898C3.57553 16.4844 3.56365 16.4788 3.55207 16.4726C3.54661 16.4697 3.54131 16.4666 3.53601 16.4635C3.5348 16.4628 3.53359 16.4621 3.53238 16.4613C3.52354 16.4561 3.51479 16.4509 3.50625 16.4452C3.49848 16.4401 3.49098 16.4348 3.48355 16.4293C3.47674 16.4243 3.47003 16.4193 3.46345 16.414C3.45556 16.4076 3.44791 16.4011 3.4404 16.3944C3.43454 16.3892 3.42886 16.3838 3.42323 16.3784C3.41599 16.3714 3.40894 16.3642 3.40213 16.3569C3.39649 16.3508 3.39108 16.3445 3.38571 16.3382C3.37969 16.3311 3.37379 16.324 3.36815 16.3167C3.36236 16.3091 3.35688 16.3013 3.35143 16.2935L3.34987 16.2912C3.34585 16.2854 3.34185 16.2796 3.3381 16.2737C3.33224 16.2644 3.32687 16.2549 3.32154 16.2453C3.3208 16.244 3.32006 16.2426 3.31933 16.2413C3.31677 16.2368 3.31423 16.2322 3.31186 16.2275C3.30653 16.2171 3.30173 16.2064 3.29705 16.1955C3.29627 16.1937 3.29549 16.192 3.2947 16.1902C3.29296 16.1862 3.29123 16.1823 3.28966 16.1783C3.28547 16.1677 3.28185 16.1568 3.27827 16.1459C3.27773 16.1442 3.27718 16.1426 3.27663 16.1409C3.27498 16.1359 3.27333 16.1309 3.27187 16.1258C3.2693 16.1169 3.26719 16.1077 3.26508 16.0985L3.26467 16.0967L3.26412 16.0943C3.26232 16.0865 3.26053 16.0787 3.25908 16.0708C3.25792 16.0645 3.25705 16.058 3.25618 16.0515C3.25597 16.0499 3.25575 16.0483 3.25553 16.0467C3.25405 16.036 3.2526 16.0252 3.25172 16.0144L3.251 16.0081C3.25081 16.0054 3.25081 16.0028 3.25081 16.0001C3.25081 15.9981 3.25082 15.9961 3.25073 15.9941C3.2502 15.9818 3.24982 15.9695 3.25009 15.9572C3.25022 15.9504 3.25064 15.9437 3.25105 15.937L3.25119 15.9347C3.25188 15.9238 3.25264 15.9129 3.25393 15.9019C3.25499 15.893 3.25645 15.8841 3.25791 15.8753L3.25797 15.8749C3.25949 15.8658 3.26102 15.8568 3.263 15.8478C3.26532 15.8372 3.26814 15.8267 3.27103 15.8162C3.27144 15.8148 3.27185 15.8133 3.27225 15.8119C3.27388 15.806 3.2755 15.8002 3.27739 15.7943C3.28117 15.7826 3.28551 15.7712 3.29004 15.7597C3.2908 15.7578 3.29148 15.7558 3.29215 15.7538C3.29299 15.7514 3.29383 15.749 3.29484 15.7465C3.29525 15.7456 3.29573 15.7446 3.29621 15.7437C3.29666 15.7428 3.29712 15.742 3.2975 15.7411C3.3023 15.7301 3.30767 15.7194 3.31312 15.7088C3.31416 15.7068 3.31517 15.7048 3.31619 15.7027C3.31854 15.6981 3.32089 15.6934 3.32344 15.6889C3.32731 15.682 3.33152 15.6754 3.33575 15.6687C3.33676 15.6671 3.33778 15.6655 3.33879 15.6639C3.33969 15.6625 3.3406 15.6611 3.3415 15.6596C3.3456 15.653 3.3497 15.6465 3.35414 15.6402C3.35712 15.636 3.36029 15.6319 3.36347 15.6279C3.36479 15.6262 3.36612 15.6245 3.36743 15.6228L3.36946 15.6201C3.37574 15.6118 3.38202 15.6036 3.38876 15.5958C3.39105 15.5932 3.39347 15.5906 3.39589 15.5881C3.39746 15.5865 3.39903 15.5848 3.40057 15.5832L3.40269 15.5808C3.41055 15.5723 3.41838 15.5638 3.42673 15.5559C3.42952 15.5532 3.43244 15.5507 3.43537 15.5482C3.4372 15.5466 3.43902 15.5451 3.44082 15.5435L3.44384 15.5408C3.45166 15.5338 3.45947 15.5268 3.46767 15.5204C3.47262 15.5165 3.47777 15.5129 3.48293 15.5093C3.48516 15.5077 3.48739 15.5061 3.48961 15.5045C3.49158 15.5031 3.49354 15.5017 3.49549 15.5003C3.50077 15.4964 3.50605 15.4926 3.51155 15.489C3.5203 15.4834 3.52944 15.4783 3.53859 15.4732L3.54232 15.4711C3.54447 15.4699 3.54659 15.4686 3.54871 15.4674C3.55192 15.4655 3.55513 15.4636 3.55843 15.4619C3.56923 15.4563 3.58045 15.4514 3.59168 15.4465L3.59305 15.4459C3.59507 15.445 3.59707 15.4441 3.59908 15.4432C3.60219 15.4417 3.6053 15.4403 3.60848 15.439C3.61817 15.4351 3.62821 15.4318 3.63825 15.4285L3.64138 15.4275C3.64389 15.4266 3.64637 15.4258 3.64885 15.4249C3.65309 15.4235 3.65732 15.422 3.66164 15.4208C3.66915 15.4186 3.67679 15.4168 3.68445 15.4151C3.68623 15.4147 3.68801 15.4142 3.68979 15.4138C3.69119 15.4135 3.69259 15.4132 3.69399 15.4128C3.70185 15.4109 3.70972 15.409 3.71767 15.4076C3.72346 15.4065 3.72936 15.4057 3.73527 15.4049C3.73706 15.4047 3.73885 15.4044 3.74064 15.4042C3.75214 15.4026 3.76368 15.401 3.77533 15.4C3.77632 15.4 3.77729 15.3998 3.77825 15.3997C3.77938 15.3995 3.78051 15.3994 3.78165 15.3993L8.14799 15.1C8.24983 14.0989 8.4652 12.7614 8.91885 11.3841C9.53017 9.52809 10.4372 7.98995 11.6148 6.81233C12.6675 5.75963 13.9963 4.92867 15.5804 4.32946L15.5901 4.37406C15.6911 4.83822 15.6912 4.83822 15.6946 4.85155C16.0354 6.1512 16.7203 7.34295 17.6754 8.29799Z" fill="white"/>
<path d="M8.73472 4.48314L9.72567 3.94269C9.81926 3.89306 9.8744 3.79396 9.88004 3.68943C9.88019 3.57941 9.8198 3.48596 9.72635 3.43658L8.73684 2.89878L8.19904 1.90928C8.14966 1.81582 8.05071 1.76094 7.94619 1.75558C7.83617 1.75573 7.74257 1.81637 7.69293 1.90995L7.15248 2.9009L6.16154 3.44135C6.06795 3.49098 6.0128 3.59008 6.00716 3.69461C6.00702 3.80463 6.0674 3.89808 6.16086 3.94746L7.15036 4.48526L7.68816 5.47476C7.69913 5.49675 7.72111 5.51873 7.74309 5.5407C7.79802 5.59564 7.8695 5.62305 7.95202 5.62845C8.06204 5.6283 8.15564 5.56766 8.20528 5.47407L8.73472 4.48314Z" fill="white"/>
<path d="M24.7026 15.0805L25.5341 14.627C25.6127 14.5854 25.6589 14.5022 25.6637 14.4145C25.6638 14.3222 25.6131 14.2438 25.5347 14.2023L24.7044 13.7511L24.2531 12.9208C24.2117 12.8423 24.1286 12.7963 24.0409 12.7918C23.9486 12.7919 23.8701 12.8428 23.8284 12.9213L23.3749 13.7528L22.5434 14.2063C22.4649 14.248 22.4186 14.3312 22.4139 14.4189C22.4137 14.5112 22.4644 14.5896 22.5428 14.631L23.3732 15.0823L23.8244 15.9126C23.8336 15.9311 23.8521 15.9495 23.8705 15.968C23.9166 16.0141 23.9766 16.0371 24.0458 16.0416C24.1382 16.0415 24.2167 15.9906 24.2583 15.912L24.7026 15.0805Z" fill="white"/>
<path d="M6.2633 7.86725L6.73342 7.61086C6.77782 7.58731 6.80398 7.5403 6.80665 7.49071C6.80672 7.43851 6.77807 7.39418 6.73374 7.37075L6.2643 7.11561L6.00916 6.64618C5.98573 6.60184 5.93879 6.5758 5.88921 6.57326C5.83701 6.57333 5.7926 6.6021 5.76906 6.6465L5.51266 7.11662L5.04254 7.37301C4.99814 7.39656 4.97198 7.44357 4.9693 7.49316C4.96924 7.54536 4.99788 7.58969 5.04222 7.61312L5.51166 7.86826L5.76679 8.33769C5.772 8.34812 5.78243 8.35855 5.79285 8.36898C5.81891 8.39504 5.85283 8.40804 5.89197 8.4106C5.94417 8.41053 5.98857 8.38176 6.01212 8.33736L6.2633 7.86725Z" fill="white"/>
</svg>
