<svg width="21" height="22" viewBox="0 0 21 22" fill="none" xmlns="http://www.w3.org/2000/svg">
<path d="M20.9795 7.0842L20.6868 4.28887C20.263 1.24125 18.8804 0 15.9236 0H13.5421H12.0485H8.98072H7.48719H5.06524C2.09835 0 0.725916 1.24125 0.291983 4.31914L0.0195143 7.09429C-0.0814002 8.17408 0.211252 9.22359 0.847013 10.041C1.61396 11.04 2.79466 11.6052 4.10655 11.6052C5.37807 11.6052 6.59914 10.9694 7.36609 9.95017C8.05231 10.9694 9.22292 11.6052 10.5247 11.6052C11.8265 11.6052 12.9668 10.9997 13.6632 9.99054C14.4402 10.9896 15.6411 11.6052 16.8924 11.6052C18.2346 11.6052 19.4456 11.0098 20.2024 9.96026C20.8079 9.15295 21.0804 8.13371 20.9795 7.0842Z" fill="#435BFE"/>
<path d="M9.86878 15.5509C8.58717 15.6821 7.61839 16.772 7.61839 18.0637V20.8288C7.61839 21.1012 7.8404 21.3232 8.11287 21.3232H12.9265C13.199 21.3232 13.421 21.1012 13.421 20.8288V18.4169C13.4311 16.3078 12.1898 15.3087 9.86878 15.5509Z" fill="#435BFE"/>
<path d="M19.9804 13.2702V16.2775C19.9804 19.0627 17.7199 21.3232 14.9347 21.3232C14.6622 21.3232 14.4402 21.1012 14.4402 20.8287V18.4169C14.4402 17.1251 14.0467 16.116 13.2797 15.4298C12.6036 14.8142 11.6853 14.5115 10.5449 14.5115C10.2926 14.5115 10.0403 14.5216 9.76788 14.5518C7.9716 14.7335 6.60925 16.2472 6.60925 18.0637V20.8287C6.60925 21.1012 6.38724 21.3232 6.11477 21.3232C3.32953 21.3232 1.06904 19.0627 1.06904 16.2775V13.2904C1.06904 12.584 1.76535 12.1097 2.4213 12.3418C2.69377 12.4326 2.96624 12.5033 3.2488 12.5436C3.3699 12.5638 3.50108 12.584 3.62218 12.584C3.78364 12.6042 3.94511 12.6143 4.10657 12.6143C5.27718 12.6143 6.42761 12.1803 7.33584 11.4336C8.2037 12.1803 9.33394 12.6143 10.5247 12.6143C11.7256 12.6143 12.8357 12.2005 13.7035 11.4538C14.6118 12.1904 15.742 12.6143 16.8924 12.6143C17.0741 12.6143 17.2557 12.6042 17.4273 12.584C17.5484 12.5739 17.6594 12.5638 17.7704 12.5436C18.0832 12.5033 18.3658 12.4124 18.6484 12.3216C19.3043 12.0996 19.9804 12.584 19.9804 13.2702Z" fill="#435BFE"/>
</svg>
