<svg width="32" height="32" viewBox="0 0 32 32" fill="none" xmlns="http://www.w3.org/2000/svg">
<path d="M16 2.66669C8.65335 2.66669 2.66669 8.65335 2.66669 16C2.66669 23.3467 8.65335 29.3334 16 29.3334C23.3467 29.3334 29.3334 23.3467 29.3334 16C29.3334 8.65335 23.3467 2.66669 16 2.66669ZM22.28 14.28L15.6133 20.9466C15.3467 21.2 15.0134 21.3334 14.6667 21.3334C14.32 21.3334 13.9867 21.2 13.72 20.9466L9.72003 16.9466C9.20003 16.4266 9.20003 15.5734 9.72003 15.0534C10.24 14.5334 11.0933 14.5334 11.6133 15.0534L14.6667 18.1201L20.3867 12.3867C20.9067 11.8667 21.76 11.8667 22.28 12.3867C22.8 12.9067 22.8 13.76 22.28 14.28Z" fill="#435BFE"/>
</svg>
