<svg width="21" height="20" viewBox="0 0 21 20" fill="none" xmlns="http://www.w3.org/2000/svg">
<path d="M19.9856 9.41021C19.6457 3.61035 14.3758 -0.859529 8.30594 0.140447C4.12604 0.83043 0.776133 4.22033 0.126149 8.40022C-0.253842 10.8202 0.246168 13.1101 1.33614 15.0001L0.446149 18.31C0.246153 19.06 0.936117 19.74 1.6761 19.53L4.93603 18.63C6.41599 19.5 8.14595 19.9999 9.9959 19.9999C15.6358 19.9999 20.3156 15.0301 19.9856 9.41021ZM14.8858 13.7201C14.7958 13.9001 14.6858 14.0701 14.5458 14.2301C14.2958 14.5001 14.0258 14.7001 13.7258 14.8201C13.4258 14.9501 13.0958 15.0101 12.7458 15.0101C12.2358 15.0101 11.6859 14.8901 11.1159 14.6401C10.5359 14.3901 9.96593 14.0601 9.39594 13.6501C8.81596 13.2301 8.27596 12.7601 7.75597 12.2501C7.23598 11.7301 6.77597 11.1801 6.35598 10.6102C5.94599 10.0402 5.61601 9.4702 5.37602 8.90021C5.13603 8.33023 5.01604 7.78026 5.01604 7.26027C5.01604 6.92028 5.07604 6.59028 5.19603 6.29029C5.31603 5.9803 5.50604 5.70031 5.77604 5.45031C6.09603 5.13032 6.446 4.98032 6.81599 4.98032C6.95598 4.98032 7.09595 5.01032 7.22595 5.07032C7.35595 5.13032 7.47597 5.22031 7.56597 5.35031L8.72591 6.99025C8.81591 7.12025 8.88592 7.23026 8.92592 7.34025C8.97592 7.45025 8.99593 7.55025 8.99593 7.65024C8.99593 7.77024 8.95594 7.89025 8.88594 8.01025C8.81595 8.13025 8.72592 8.25023 8.60592 8.37023L8.22593 8.77021C8.16593 8.83021 8.14597 8.89022 8.14597 8.97022C8.14597 9.01022 8.15593 9.05021 8.16593 9.09021C8.18593 9.13021 8.19597 9.16021 8.20597 9.19021C8.29597 9.36021 8.45593 9.57019 8.67593 9.83018C8.90592 10.0902 9.14596 10.3602 9.40595 10.6202C9.67595 10.8902 9.93593 11.1301 10.2059 11.3601C10.4659 11.5801 10.6859 11.7302 10.8559 11.8202C10.8859 11.8302 10.9159 11.8501 10.9459 11.8601C10.9859 11.8801 11.0259 11.8802 11.0759 11.8802C11.1659 11.8802 11.2259 11.8502 11.2859 11.7902L11.6658 11.4102C11.7958 11.2802 11.9159 11.1902 12.0259 11.1302C12.1459 11.0602 12.2559 11.0202 12.3859 11.0202C12.4859 11.0202 12.5859 11.0402 12.6958 11.0902C12.8058 11.1402 12.9258 11.2002 13.0458 11.2902L14.7058 12.4701C14.8358 12.5601 14.9258 12.6701 14.9858 12.7901C15.0358 12.9201 15.0658 13.0401 15.0658 13.1801C15.0058 13.3501 14.9658 13.5401 14.8858 13.7201Z" fill="white"/>
</svg>
