<svg width="19" height="27" viewBox="0 0 19 27" fill="none" xmlns="http://www.w3.org/2000/svg">
<path d="M9.50002 0C5.96451 0 3.09021 2.87429 3.09021 6.40981C3.09021 9.87785 5.80257 12.6847 9.33809 12.8061C9.44604 12.7926 9.554 12.7926 9.63496 12.8061C9.66195 12.8061 9.67545 12.8061 9.70244 12.8061C9.71593 12.8061 9.71593 12.8061 9.72942 12.8061C13.184 12.6847 15.8963 9.87785 15.9098 6.40981C15.9098 2.87429 13.0355 0 9.50002 0Z" fill="#435BFE"/>
<path d="M16.3551 16.3956C12.5902 13.8856 6.45029 13.8856 2.65838 16.3956C0.944603 17.5426 0 19.0944 0 20.7542C0 22.414 0.944603 23.9524 2.64489 25.0859C4.5341 26.3544 7.01705 26.9886 9.50001 26.9886C11.983 26.9886 14.4659 26.3544 16.3551 25.0859C18.0554 23.9389 19 22.4006 19 20.7273C18.9865 19.0675 18.0554 17.5291 16.3551 16.3956Z" fill="#435BFE"/>
</svg>
