<svg width="13" height="14" viewBox="0 0 13 14" fill="none" xmlns="http://www.w3.org/2000/svg">
<path d="M0.524979 14H12.425C12.712 14 12.95 13.762 12.95 13.475C12.95 13.188 12.712 12.95 12.425 12.95H0.524979C0.237979 12.95 -2.20299e-05 13.188 -2.20299e-05 13.475C-2.20299e-05 13.762 0.237979 14 0.524979 14Z" fill="white"/>
<path d="M1.575 10.85C1.708 10.85 1.841 10.801 1.946 10.696L11.746 0.895982C11.949 0.692982 11.949 0.356981 11.746 0.153981C11.543 -0.0490197 11.207 -0.0490197 11.004 0.153981L1.204 9.954C1.001 10.157 1.001 10.493 1.204 10.696C1.309 10.801 1.442 10.85 1.575 10.85Z" fill="white"/>
<path d="M11.375 8.23901C11.662 8.23901 11.9 8.00101 11.9 7.71401V0.525001C11.9 0.238 11.662 0 11.375 0H4.18598C3.89898 0 3.66098 0.238 3.66098 0.525001C3.66098 0.812001 3.89898 1.05 4.18598 1.05H10.85V7.71401C10.85 8.00101 11.088 8.23901 11.375 8.23901Z" fill="white"/>
</svg>
