<svg width="14" height="15" viewBox="0 0 14 15" fill="none" xmlns="http://www.w3.org/2000/svg">
<path d="M0.5625 15H13.3125C13.62 15 13.875 14.745 13.875 14.4375C13.875 14.13 13.62 13.875 13.3125 13.875H0.5625C0.255 13.875 0 14.13 0 14.4375C0 14.745 0.255 15 0.5625 15Z" fill="#435BFE"/>
<path d="M1.68754 11.625C1.83004 11.625 1.97254 11.5725 2.08504 11.46L12.585 0.960002C12.8025 0.742502 12.8025 0.382502 12.585 0.165002C12.3675 -0.0524982 12.0075 -0.0524982 11.79 0.165002L1.29005 10.665C1.07255 10.8825 1.07255 11.2425 1.29005 11.46C1.40255 11.5725 1.54504 11.625 1.68754 11.625Z" fill="#435BFE"/>
<path d="M12.1875 8.8275C12.495 8.8275 12.75 8.5725 12.75 8.265V0.5625C12.75 0.255 12.495 0 12.1875 0H4.485C4.1775 0 3.9225 0.255 3.9225 0.5625C3.9225 0.87 4.1775 1.125 4.485 1.125H11.625V8.265C11.625 8.5725 11.88 8.8275 12.1875 8.8275Z" fill="#435BFE"/>
</svg>
