<svg width="20" height="20" viewBox="0 0 20 20" fill="none" xmlns="http://www.w3.org/2000/svg">
<path d="M19.54 9.07001C19.49 8.56001 19.06 8.17999 18.55 8.17999H11C10.45 8.17999 10 8.62999 10 9.17999V10.89C10 11.44 10.45 11.89 11 11.89H15.51C15.4 12.81 14.8 14.2 13.47 15.13C12.62 15.72 11.49 16.13 10 16.13C9.93 16.13 9.87 16.13 9.8 16.12C7.25 16.04 5.09 14.33 4.31001 11.98C4.10001 11.35 3.98 10.69 3.98 10C3.98 9.31 4.1 8.63999 4.3 8.01999C4.36 7.83999 4.43 7.66001 4.51 7.48001C5.43 5.41001 7.44 3.95 9.8 3.88C9.86 3.87 9.93 3.87 10 3.87C11.43 3.87 12.5 4.33999 13.25 4.85999C13.64 5.12999 14.16 5.06999 14.5 4.73999L15.89 3.38C16.33 2.95 16.29 2.21999 15.79 1.85999C14.2 0.689985 12.26 0 10 0C9.93 0 9.87 9.76585e-06 9.8 0.0100098C5.97 0.0800098 2.68 2.30001 1.07 5.51001C0.39 6.87001 0 8.39 0 10C0 11.61 0.39 13.13 1.07 14.49H1.08C2.69 17.7 5.98 19.92 9.8 19.99C9.87 20 9.93 20 10 20C12.7 20 14.97 19.11 16.62 17.58C18.51 15.83 19.6 13.27 19.6 10.22C19.6 9.79 19.58 9.42001 19.54 9.07001Z" fill="white"/>
</svg>
