<svg width="32" height="32" viewBox="0 0 32 32" fill="none" xmlns="http://www.w3.org/2000/svg">
<path d="M18.4152 16.7276C18.4152 18.0256 17.3674 19.0734 16.0694 19.0734C14.7713 19.0734 13.7235 18.0256 13.7235 16.7276C13.7235 15.4295 14.7713 14.3817 16.0694 14.3817C17.3674 14.3817 18.4152 15.4295 18.4152 16.7276ZM30.9265 16.7276C30.9265 24.9225 24.2642 31.5847 16.0694 31.5847C7.87448 31.5847 1.21222 24.9225 1.21222 16.7276C1.21222 8.53268 7.87448 1.87042 16.0694 1.87042C24.2642 1.87042 30.9265 8.53268 30.9265 16.7276ZM23.4041 9.39292C22.8098 8.81427 21.981 8.57947 21.1677 8.78278L14.8339 10.3623C12.3003 11.0035 10.3454 12.9585 9.70424 15.492L8.12472 21.8259C7.92141 22.6392 8.15597 23.4679 8.73462 24.0622C9.18815 24.5001 9.78244 24.7502 10.3924 24.7502C10.58 24.7502 10.7833 24.7193 10.971 24.6723L17.3049 23.0928C19.8384 22.4516 21.7933 20.4966 22.4345 17.9631L24.014 11.6292C24.2173 10.816 23.9827 9.98721 23.4041 9.39292Z" fill="#435BFE"/>
</svg>
