<svg width="19" height="25" viewBox="0 0 19 25" fill="none" xmlns="http://www.w3.org/2000/svg">
<path d="M17.4179 10.2277C17.1611 10.2277 16.9043 10.1331 16.7016 9.9304L9.21408 2.4429L1.72658 9.9304C1.33464 10.3223 0.685904 10.3223 0.293959 9.9304C-0.0979862 9.53845 -0.0979862 8.88972 0.293959 8.49777L8.49777 0.293959C8.88972 -0.0979862 9.53845 -0.0979862 9.9304 0.293959L18.1342 8.49777C18.5262 8.88972 18.5262 9.53845 18.1342 9.9304C17.945 10.1331 17.6747 10.2277 17.4179 10.2277Z" fill="white"/>
<path d="M9.21405 25.0001C8.65992 25.0001 8.2004 24.5405 8.2004 23.9864V1.24009C8.2004 0.68596 8.65992 0.226438 9.21405 0.226438C9.76818 0.226438 10.2277 0.68596 10.2277 1.24009V23.9864C10.2277 24.5405 9.76818 25.0001 9.21405 25.0001Z" fill="white"/>
</svg>
