<svg width="13" height="10" viewBox="0 0 13 10" fill="none" xmlns="http://www.w3.org/2000/svg">
<path d="M8.20867 9.5844C8.07514 9.5844 7.94161 9.53521 7.83619 9.42979C7.63238 9.22598 7.63238 8.88863 7.83619 8.68482L11.7297 4.79132L7.83619 0.897824C7.63238 0.694013 7.63238 0.35667 7.83619 0.152859C8.04 -0.0509528 8.37735 -0.0509528 8.58116 0.152859L12.8471 4.41884C13.051 4.62265 13.051 4.95999 12.8471 5.16381L8.58116 9.42979C8.47574 9.53521 8.34221 9.5844 8.20867 9.5844Z" fill="white"/>
<path d="M12.3552 5.31847H0.527098C0.238951 5.31847 0 5.07952 0 4.79137C0 4.50322 0.238951 4.26427 0.527098 4.26427H12.3552C12.6433 4.26427 12.8823 4.50322 12.8823 4.79137C12.8823 5.07952 12.6433 5.31847 12.3552 5.31847Z" fill="white"/>
</svg>
